<svg width="258" height="100" viewBox="0 0 258 100" fill="none" xmlns="http://www.w3.org/2000/svg">
<g filter="url(#filter0_i_2_302)">
<path d="M75.7969 84.7656C72.151 84.7656 69.2865 83.8021 67.2031 81.875C65.1198 79.9479 64.0781 77.6562 64.0781 75C64.0781 72.3438 65.1198 70.0521 67.2031 68.125C69.2865 66.1979 72.151 65.2344 75.7969 65.2344H102.203C105.849 65.2344 108.714 66.1979 110.797 68.125C112.88 70.0521 113.922 72.3438 113.922 75C113.922 77.6562 112.88 79.9479 110.797 81.875C108.714 83.8021 105.849 84.7656 102.203 84.7656H75.7969ZM65.7969 74.7656C62.151 74.7656 59.2865 73.8021 57.2031 71.875C55.1198 69.9479 54.0781 67.6562 54.0781 65C54.0781 62.3438 55.1198 60.0521 57.2031 58.125C59.2865 56.1979 62.151 55.2344 65.7969 55.2344H72.2031C75.849 55.2344 78.7135 56.1979 80.7969 58.125C82.8802 60.0521 83.9219 62.3438 83.9219 65C83.9219 67.6562 82.8802 69.9479 80.7969 71.875C78.7135 73.8021 75.849 74.7656 72.2031 74.7656H65.7969ZM105.797 74.7656C102.151 74.7656 99.2865 73.8021 97.2031 71.875C95.1198 69.9479 94.0781 67.6562 94.0781 65C94.0781 62.3438 95.1198 60.0521 97.2031 58.125C99.2865 56.1979 102.151 55.2344 105.797 55.2344H112.203C115.849 55.2344 118.714 56.1979 120.797 58.125C122.88 60.0521 123.922 62.3438 123.922 65C123.922 67.6562 122.88 69.9479 120.797 71.875C118.714 73.8021 115.849 74.7656 112.203 74.7656H105.797ZM65.7969 64.7656C62.151 64.7656 59.2865 63.8021 57.2031 61.875C55.1198 59.9479 54.0781 57.6562 54.0781 55C54.0781 52.3438 55.1198 50.0521 57.2031 48.125C59.2865 46.1979 62.151 45.2344 65.7969 45.2344H72.2031C75.849 45.2344 78.7135 46.1979 80.7969 48.125C82.8802 50.0521 83.9219 52.3438 83.9219 55C83.9219 57.6562 82.8802 59.9479 80.7969 61.875C78.7135 63.8021 75.849 64.7656 72.2031 64.7656H65.7969ZM105.797 64.7656C102.151 64.7656 99.2865 63.8021 97.2031 61.875C95.1198 59.9479 94.0781 57.6562 94.0781 55C94.0781 52.3438 95.1198 50.0521 97.2031 48.125C99.2865 46.1979 102.151 45.2344 105.797 45.2344H112.203C115.849 45.2344 118.714 46.1979 120.797 48.125C122.88 50.0521 123.922 52.3438 123.922 55C123.922 57.6562 122.88 59.9479 120.797 61.875C118.714 63.8021 115.849 64.7656 112.203 64.7656H105.797ZM65.7969 54.7656C62.151 54.7656 59.2865 53.8021 57.2031 51.875C55.1198 49.9479 54.0781 47.6562 54.0781 45C54.0781 42.3438 55.1198 40.0521 57.2031 38.125C59.2865 36.1979 62.151 35.2344 65.7969 35.2344H72.2031C75.849 35.2344 78.7135 36.1979 80.7969 38.125C82.8802 40.0521 83.9219 42.3438 83.9219 45C83.9219 47.6562 82.8802 49.9479 80.7969 51.875C78.7135 53.8021 75.849 54.7656 72.2031 54.7656H65.7969ZM105.797 54.7656C102.151 54.7656 99.2865 53.8021 97.2031 51.875C95.1198 49.9479 94.0781 47.6562 94.0781 45C94.0781 42.3438 95.1198 40.0521 97.2031 38.125C99.2865 36.1979 102.151 35.2344 105.797 35.2344H112.203C115.849 35.2344 118.714 36.1979 120.797 38.125C122.88 40.0521 123.922 42.3438 123.922 45C123.922 47.6562 122.88 49.9479 120.797 51.875C118.714 53.8021 115.849 54.7656 112.203 54.7656H105.797ZM65.7969 44.7656C62.151 44.7656 59.2865 43.8021 57.2031 41.875C55.1198 39.9479 54.0781 37.6562 54.0781 35C54.0781 32.3438 55.1198 30.0521 57.2031 28.125C59.2865 26.1979 62.151 25.2344 65.7969 25.2344H72.2031C75.849 25.2344 78.7135 26.1979 80.7969 28.125C82.8802 30.0521 83.9219 32.3438 83.9219 35C83.9219 37.6562 82.8802 39.9479 80.7969 41.875C78.7135 43.8021 75.849 44.7656 72.2031 44.7656H65.7969ZM105.797 44.7656C102.151 44.7656 99.2865 43.8021 97.2031 41.875C95.1198 39.9479 94.0781 37.6562 94.0781 35C94.0781 32.3438 95.1198 30.0521 97.2031 28.125C99.2865 26.1979 102.151 25.2344 105.797 25.2344H112.203C115.849 25.2344 118.714 26.1979 120.797 28.125C122.88 30.0521 123.922 32.3438 123.922 35C123.922 37.6562 122.88 39.9479 120.797 41.875C118.714 43.8021 115.849 44.7656 112.203 44.7656H105.797ZM65.7969 34.7656C62.151 34.7656 59.2865 33.8021 57.2031 31.875C55.1198 29.9479 54.0781 27.6562 54.0781 25C54.0781 22.3438 55.1198 20.0521 57.2031 18.125C59.2865 16.1979 62.151 15.2344 65.7969 15.2344H72.2031C75.849 15.2344 78.7135 16.1979 80.7969 18.125C82.8802 20.0521 83.9219 22.3438 83.9219 25C83.9219 27.6562 82.8802 29.9479 80.7969 31.875C78.7135 33.8021 75.849 34.7656 72.2031 34.7656H65.7969ZM105.797 34.7656C102.151 34.7656 99.2865 33.8021 97.2031 31.875C95.1198 29.9479 94.0781 27.6562 94.0781 25C94.0781 22.3438 95.1198 20.0521 97.2031 18.125C99.2865 16.1979 102.151 15.2344 105.797 15.2344H112.203C115.849 15.2344 118.714 16.1979 120.797 18.125C122.88 20.0521 123.922 22.3438 123.922 25C123.922 27.6562 122.88 29.9479 120.797 31.875C118.714 33.8021 115.849 34.7656 112.203 34.7656H105.797ZM65.7969 24.7656C62.151 24.7656 59.2865 23.8021 57.2031 21.875C55.1198 19.9479 54.0781 17.6562 54.0781 15C54.0781 12.3438 55.1198 10.0521 57.2031 8.125C59.2865 6.19792 62.151 5.23438 65.7969 5.23438H72.2031C75.849 5.23438 78.7135 6.19792 80.7969 8.125C82.8802 10.0521 83.9219 12.3438 83.9219 15C83.9219 17.6562 82.8802 19.9479 80.7969 21.875C78.7135 23.8021 75.849 24.7656 72.2031 24.7656H65.7969ZM105.797 24.7656C102.151 24.7656 99.2865 23.8021 97.2031 21.875C95.1198 19.9479 94.0781 17.6562 94.0781 15C94.0781 12.3438 95.1198 10.0521 97.2031 8.125C99.2865 6.19792 102.151 5.23438 105.797 5.23438H112.203C115.849 5.23438 118.714 6.19792 120.797 8.125C122.88 10.0521 123.922 12.3438 123.922 15C123.922 17.6562 122.88 19.9479 120.797 21.875C118.714 23.8021 115.849 24.7656 112.203 24.7656H105.797ZM145.797 84.7656C142.151 84.7656 139.286 83.8021 137.203 81.875C135.12 79.9479 134.078 77.6562 134.078 75C134.078 72.3438 135.12 70.0521 137.203 68.125C139.286 66.1979 142.151 65.2344 145.797 65.2344H152.203C155.849 65.2344 158.714 66.1979 160.797 68.125C162.88 70.0521 163.922 72.3438 163.922 75C163.922 77.6562 162.88 79.9479 160.797 81.875C158.714 83.8021 155.849 84.7656 152.203 84.7656H145.797ZM195.797 84.7656C192.151 84.7656 189.286 83.8021 187.203 81.875C185.12 79.9479 184.078 77.6562 184.078 75C184.078 72.3438 185.12 70.0521 187.203 68.125C189.286 66.1979 192.151 65.2344 195.797 65.2344H202.203C205.849 65.2344 208.714 66.1979 210.797 68.125C212.88 70.0521 213.922 72.3438 213.922 75C213.922 77.6562 212.88 79.9479 210.797 81.875C208.714 83.8021 205.849 84.7656 202.203 84.7656H195.797ZM145.797 74.7656C142.151 74.7656 139.286 73.8021 137.203 71.875C135.12 69.9479 134.078 67.6562 134.078 65C134.078 62.3438 135.12 60.0521 137.203 58.125C139.286 56.1979 142.151 55.2344 145.797 55.2344H152.203C155.849 55.2344 158.714 56.1979 160.797 58.125C162.88 60.0521 163.922 62.3438 163.922 65C163.922 67.6562 162.88 69.9479 160.797 71.875C158.714 73.8021 155.849 74.7656 152.203 74.7656H145.797ZM195.797 74.7656C192.151 74.7656 189.286 73.8021 187.203 71.875C185.12 69.9479 184.078 67.6562 184.078 65C184.078 62.3438 185.12 60.0521 187.203 58.125C189.286 56.1979 192.151 55.2344 195.797 55.2344H202.203C205.849 55.2344 208.714 56.1979 210.797 58.125C212.88 60.0521 213.922 62.3438 213.922 65C213.922 67.6562 212.88 69.9479 210.797 71.875C208.714 73.8021 205.849 74.7656 202.203 74.7656H195.797ZM145.797 64.7656C142.151 64.7656 139.286 63.8021 137.203 61.875C135.12 59.9479 134.078 57.6562 134.078 55C134.078 52.3438 135.12 50.0521 137.203 48.125C139.286 46.1979 142.151 45.2344 145.797 45.2344H152.203C155.849 45.2344 158.714 46.1979 160.797 48.125C162.88 50.0521 163.922 52.3438 163.922 55C163.922 57.6562 162.88 59.9479 160.797 61.875C158.714 63.8021 155.849 64.7656 152.203 64.7656H145.797ZM195.797 64.7656C192.151 64.7656 189.286 63.8021 187.203 61.875C185.12 59.9479 184.078 57.6562 184.078 55C184.078 52.3438 185.12 50.0521 187.203 48.125C189.286 46.1979 192.151 45.2344 195.797 45.2344H202.203C205.849 45.2344 208.714 46.1979 210.797 48.125C212.88 50.0521 213.922 52.3438 213.922 55C213.922 57.6562 212.88 59.9479 210.797 61.875C208.714 63.8021 205.849 64.7656 202.203 64.7656H195.797ZM145.797 54.7656C142.151 54.7656 139.286 53.8021 137.203 51.875C135.12 49.9479 134.078 47.6562 134.078 45C134.078 42.3438 135.12 40.0521 137.203 38.125C139.286 36.1979 142.151 35.2344 145.797 35.2344H152.203C155.849 35.2344 158.714 36.1979 160.797 38.125C162.88 40.0521 163.922 42.3438 163.922 45C163.922 47.6562 162.88 49.9479 160.797 51.875C158.714 53.8021 155.849 54.7656 152.203 54.7656H145.797ZM173.844 54.7656C171.083 54.7656 168.766 53.8021 166.891 51.875C165.016 49.9479 164.078 47.6562 164.078 45C164.078 42.3438 165.016 40.0521 166.891 38.125C168.766 36.1979 171.083 35.2344 173.844 35.2344H174.156C176.917 35.2344 179.234 36.1979 181.109 38.125C182.984 40.0521 183.922 42.3438 183.922 45C183.922 47.6562 182.984 49.9479 181.109 51.875C179.234 53.8021 176.917 54.7656 174.156 54.7656H173.844ZM195.797 54.7656C192.151 54.7656 189.286 53.8021 187.203 51.875C185.12 49.9479 184.078 47.6562 184.078 45C184.078 42.3438 185.12 40.0521 187.203 38.125C189.286 36.1979 192.151 35.2344 195.797 35.2344H202.203C205.849 35.2344 208.714 36.1979 210.797 38.125C212.88 40.0521 213.922 42.3438 213.922 45C213.922 47.6562 212.88 49.9479 210.797 51.875C208.714 53.8021 205.849 54.7656 202.203 54.7656H195.797ZM145.797 44.7656C142.151 44.7656 139.286 43.8021 137.203 41.875C135.12 39.9479 134.078 37.6562 134.078 35C134.078 32.3438 135.12 30.0521 137.203 28.125C139.286 26.1979 142.151 25.2344 145.797 25.2344H202.203C205.849 25.2344 208.714 26.1979 210.797 28.125C212.88 30.0521 213.922 32.3438 213.922 35C213.922 37.6562 212.88 39.9479 210.797 41.875C208.714 43.8021 205.849 44.7656 202.203 44.7656H145.797ZM145.797 34.7656C142.151 34.7656 139.286 33.8021 137.203 31.875C135.12 29.9479 134.078 27.6562 134.078 25C134.078 22.3438 135.12 20.0521 137.203 18.125C139.286 16.1979 142.151 15.2344 145.797 15.2344H162.203C165.849 15.2344 168.714 16.1979 170.797 18.125C172.88 20.0521 173.922 22.3438 173.922 25C173.922 27.6562 172.88 29.9479 170.797 31.875C168.714 33.8021 165.849 34.7656 162.203 34.7656H145.797ZM185.797 34.7656C182.151 34.7656 179.286 33.8021 177.203 31.875C175.12 29.9479 174.078 27.6562 174.078 25C174.078 22.3438 175.12 20.0521 177.203 18.125C179.286 16.1979 182.151 15.2344 185.797 15.2344H202.203C205.849 15.2344 208.714 16.1979 210.797 18.125C212.88 20.0521 213.922 22.3438 213.922 25C213.922 27.6562 212.88 29.9479 210.797 31.875C208.714 33.8021 205.849 34.7656 202.203 34.7656H185.797ZM145.797 24.7656C142.151 24.7656 139.286 23.8021 137.203 21.875C135.12 19.9479 134.078 17.6562 134.078 15C134.078 12.3438 135.12 10.0521 137.203 8.125C139.286 6.19792 142.151 5.23438 145.797 5.23438H152.203C155.849 5.23438 158.714 6.19792 160.797 8.125C162.88 10.0521 163.922 12.3438 163.922 15C163.922 17.6562 162.88 19.9479 160.797 21.875C158.714 23.8021 155.849 24.7656 152.203 24.7656H145.797ZM195.797 24.7656C192.151 24.7656 189.286 23.8021 187.203 21.875C185.12 19.9479 184.078 17.6562 184.078 15C184.078 12.3438 185.12 10.0521 187.203 8.125C189.286 6.19792 192.151 5.23438 195.797 5.23438H202.203C205.849 5.23438 208.714 6.19792 210.797 8.125C212.88 10.0521 213.922 12.3438 213.922 15C213.922 17.6562 212.88 19.9479 210.797 21.875C208.714 23.8021 205.849 24.7656 202.203 24.7656H195.797Z" fill="white"/>
</g>
<defs>
<filter id="filter0_i_2_302" x="54.0781" y="5.23438" width="159.844" height="83.5312" filterUnits="userSpaceOnUse" color-interpolation-filters="sRGB">
<feFlood flood-opacity="0" result="BackgroundImageFix"/>
<feBlend mode="normal" in="SourceGraphic" in2="BackgroundImageFix" result="shape"/>
<feColorMatrix in="SourceAlpha" type="matrix" values="0 0 0 0 0 0 0 0 0 0 0 0 0 0 0 0 0 0 127 0" result="hardAlpha"/>
<feOffset dy="4"/>
<feGaussianBlur stdDeviation="4.9"/>
<feComposite in2="hardAlpha" operator="arithmetic" k2="-1" k3="1"/>
<feColorMatrix type="matrix" values="0 0 0 0 0 0 0 0 0 0 0 0 0 0 0 0 0 0 0.47 0"/>
<feBlend mode="normal" in2="shape" result="effect1_innerShadow_2_302"/>
</filter>
</defs>
</svg>
